<svg xmlns="http://www.w3.org/2000/svg" viewBox="0 0 34 35" width="34" height="35">
	<style>
		tspan { white-space:pre }
		.shp0 { opacity: 0.502;fill: #f5c506 } 
		.shp1 { fill: #f5c506 } 
	</style>
	<g id="footer">
		<g id="logo_copy">
			<path id="Shape 8 copy 4" class="shp0" d="M2.81 10.32L9.77 10.06L9.72 3.04L12.7 5.9L12.74 12.92L5.78 13.19L2.81 10.32ZM7.32 14.67L14.28 14.4L14.24 7.38L17.21 10.25L17.26 17.27L10.29 17.53L7.32 14.67ZM25.05 31.75L25.01 24.73L31.97 24.47L29 21.6L22.03 21.87L22.08 28.89L25.05 31.75ZM20.54 27.41L20.49 20.39L27.46 20.12L24.49 17.26L17.52 17.52L17.57 24.54L20.54 27.41ZM24.41 2.71L24.67 9.72L31.64 9.67L28.8 12.67L21.83 12.72L21.57 5.7L24.41 2.71ZM20.09 7.25L20.36 14.27L27.33 14.22L24.48 17.22L17.52 17.26L17.25 10.25L20.09 7.25ZM3.13 25.12L10.1 25.07L10.37 32.08L13.21 29.09L12.95 22.07L5.98 22.12L3.13 25.12ZM7.45 20.57L14.42 20.52L14.68 27.54L17.53 24.54L17.26 17.53L10.29 17.58L7.45 20.57Z" />
			<path id="Shape 8 copy 3" class="shp1" d="M2 22.54L6.85 17.5L2 12.46L6.11 12.46L10.96 17.5L6.11 22.54L2 22.54ZM8.24 22.54L13.09 17.5L8.24 12.46L12.36 12.46L17.21 17.5L12.36 22.54L8.24 22.54ZM32.78 22.54L27.93 17.5L32.78 12.46L28.67 12.46L23.82 17.5L28.67 22.54L32.78 22.54ZM26.54 22.54L21.69 17.5L26.54 12.46L22.42 12.46L17.57 17.5L22.42 22.54L26.54 22.54ZM12.38 2L17.39 6.88L22.39 2L22.39 6.14L17.39 11.03L12.38 6.14L12.38 2ZM12.38 8.29L17.39 13.17L22.39 8.29L22.39 12.43L17.39 17.32L12.38 12.43L12.38 8.29ZM12.38 33L17.39 28.12L22.39 33L22.39 28.86L17.39 23.97L12.38 28.86L12.38 33ZM12.38 26.71L17.39 21.83L22.39 26.71L22.39 22.57L17.39 17.68L12.38 22.57L12.38 26.71Z" />
		</g>
	</g>
</svg>