<svg xmlns="http://www.w3.org/2000/svg" viewBox="0 0 64 64" width="64" height="64">
	<style>
		tspan { white-space:pre }
		.shp0 { opacity: 0.722;fill: #f5c506 } 
		.shp1 { fill: #f5f4f2 } 
	</style>
	<g id="sec_1">
		<g id="player_sml">
			<path id="Ellipse 2 copy" class="shp0" d="M32.5 2C49.34 2 63 15.66 63 32.5C63 49.34 49.34 63 32.5 63C15.66 63 2 49.34 2 32.5C2 15.66 15.66 2 32.5 2Z" />
			<path id="Shape 10 copy" class="shp1" d="M26.59 19.4C26.59 18.58 26.98 18 27.76 17.67C28.55 17.33 29.25 17.47 29.86 18.07L43.33 31.57C43.72 31.95 43.9 32.41 43.88 32.95C43.88 33.47 43.7 33.91 43.33 34.28L29.86 47.83C29.25 48.45 28.55 48.58 27.76 48.23C26.98 47.9 26.59 47.3 26.59 46.45L26.59 19.4L26.59 19.4Z" />
		</g>
	</g>
</svg>